<svg id="logo-perforce-icon-square-indigo" xmlns="http://www.w3.org/2000/svg" viewBox="0 0 283.55 287.72">
      <rect width="283.55" height="287.72" rx="34.74" ry="34.74" fill="#4c00ff"/>
      <g>
        <path d="M180.17,119.26l-18.97,10.95,4.8,2.77c5.67,3.27,6.28,8.7,6.28,10.89s-.61,7.61-6.28,10.89l-85.82,49.55c-5.67,3.28-10.68,1.09-12.57,0-1.89-1.09-6.28-4.34-6.28-10.89v-99.1c0-6.55,4.4-9.79,6.28-10.89,1.89-1.09,6.9-3.28,12.57,0l22.73,13.13,19.43-11.22-32.45-18.73c-10.02-5.78-21.98-5.78-32,0-10.02,5.78-16,16.14-16,27.71v99.1c0,11.57,5.98,21.93,16,27.71,5.01,2.89,10.5,4.34,16,4.34s10.99-1.45,16-4.34l85.82-49.55c10.02-5.78,16-16.14,16-27.71,0-9.73-4.24-18.59-11.54-24.6Z" fill="#f6f9fd"/>
        <path d="M103.38,168.46l18.97-10.95-4.8-2.77c-5.67-3.27-6.28-8.7-6.28-10.89s.61-7.61,6.28-10.89l85.82-49.55c5.67-3.28,10.68-1.09,12.57,0,1.89,1.09,6.28,4.34,6.28,10.89v99.1c0,6.55-4.4,9.79-6.28,10.89-1.89,1.09-6.9,3.28-12.57,0l-22.73-13.13-19.43,11.22,32.45,18.73c10.02,5.78,21.98,5.78,32,0,10.02-5.78,16-16.14,16-27.71v-99.1c0-11.57-5.98-21.93-16-27.71-5.01-2.89-10.5-4.34-16-4.34s-10.99,1.45-16,4.34l-85.82,49.55c-10.02,5.78-16,16.14-16,27.71,0,9.73,4.24,18.59,11.54,24.6Z" fill="#f6f9fd"/>
      </g>
</svg>